<?xml version="1.0" encoding="utf-8" standalone="no"?>
<!DOCTYPE svg PUBLIC "-//W3C//DTD SVG 1.1//EN"
  "http://www.w3.org/Graphics/SVG/1.1/DTD/svg11.dtd">
<svg xmlns:xlink="http://www.w3.org/1999/xlink" width="409.4375pt" height="231.84pt" viewBox="0 0 409.4375 231.84" xmlns="http://www.w3.org/2000/svg" version="1.1">
 <metadata>
  <rdf:RDF xmlns:dc="http://purl.org/dc/elements/1.1/" xmlns:cc="http://creativecommons.org/ns#" xmlns:rdf="http://www.w3.org/1999/02/22-rdf-syntax-ns#">
   <cc:Work>
    <dc:type rdf:resource="http://purl.org/dc/dcmitype/StillImage"/>
    <dc:date>2022-08-24T02:59:51.902815</dc:date>
    <dc:format>image/svg+xml</dc:format>
    <dc:creator>
     <cc:Agent>
      <dc:title>Matplotlib v3.5.2, https://matplotlib.org/</dc:title>
     </cc:Agent>
    </dc:creator>
   </cc:Work>
  </rdf:RDF>
 </metadata>
 <defs>
  <style type="text/css">*{stroke-linejoin: round; stroke-linecap: butt}</style>
 </defs>
 <g id="figure_1">
  <g id="patch_1">
   <path d="M 0 231.84 
L 409.4375 231.84 
L 409.4375 0 
L 0 0 
L 0 231.84 
z
" style="fill: none"/>
  </g>
  <g id="axes_1">
   <g id="PathCollection_1">
    <path d="M 184.890797 150.711245 
C 185.409428 150.711245 185.906888 150.50519 186.273616 150.138462 
C 186.640344 149.771734 186.846399 149.274274 186.846399 148.755643 
C 186.846399 148.237011 186.640344 147.739551 186.273616 147.372823 
C 185.906888 147.006095 185.409428 146.80004 184.890797 146.80004 
C 184.372165 146.80004 183.874705 147.006095 183.507977 147.372823 
C 183.141249 147.739551 182.935194 148.237011 182.935194 148.755643 
C 182.935194 149.274274 183.141249 149.771734 183.507977 150.138462 
C 183.874705 150.50519 184.372165 150.711245 184.890797 150.711245 
z
" clip-path="url(#p8d4a5a1cb2)" style="fill: #e5d8d1; stroke: #e5d8d1"/>
    <path d="M 169.275135 165.514026 
C 169.755785 165.514026 170.216815 165.323061 170.556686 164.98319 
C 170.896558 164.643318 171.087523 164.182289 171.087523 163.701638 
C 171.087523 163.220987 170.896558 162.759958 170.556686 162.420086 
C 170.216815 162.080215 169.755785 161.88925 169.275135 161.88925 
C 168.794484 161.88925 168.333454 162.080215 167.993583 162.420086 
C 167.653711 162.759958 167.462747 163.220987 167.462747 163.701638 
C 167.462747 164.182289 167.653711 164.643318 167.993583 164.98319 
C 168.333454 165.323061 168.794484 165.514026 169.275135 165.514026 
z
" clip-path="url(#p8d4a5a1cb2)" style="fill: #d8dce2; stroke: #d8dce2"/>
    <path d="M 161.803269 37.35413 
C 162.489032 37.35413 163.146799 37.081674 163.631706 36.596766 
C 164.116614 36.111859 164.38907 35.454092 164.38907 34.768329 
C 164.38907 34.082567 164.116614 33.424799 163.631706 32.939892 
C 163.146799 32.454985 162.489032 32.182529 161.803269 32.182529 
C 161.117507 32.182529 160.459739 32.454985 159.974832 32.939892 
C 159.489925 33.424799 159.217469 34.082567 159.217469 34.768329 
C 159.217469 35.454092 159.489925 36.111859 159.974832 36.596766 
C 160.459739 37.081674 161.117507 37.35413 161.803269 37.35413 
z
" clip-path="url(#p8d4a5a1cb2)" style="fill: #d2dbe8; stroke: #d2dbe8"/>
    <path d="M 217.3603 61.062471 
C 218.504256 61.062471 219.601511 60.607973 220.41041 59.799075 
C 221.219308 58.990176 221.673806 57.892921 221.673806 56.748966 
C 221.673806 55.605011 221.219308 54.507755 220.41041 53.698857 
C 219.601511 52.889958 218.504256 52.43546 217.3603 52.43546 
C 216.216345 52.43546 215.11909 52.889958 214.310191 53.698857 
C 213.501293 54.507755 213.046795 55.605011 213.046795 56.748966 
C 213.046795 57.892921 213.501293 58.990176 214.310191 59.799075 
C 215.11909 60.607973 216.216345 61.062471 217.3603 61.062471 
z
" clip-path="url(#p8d4a5a1cb2)" style="fill: #f5c0a7; stroke: #f5c0a7"/>
    <path d="M 102.779441 76.080561 
C 104.315728 76.080561 105.7893 75.470187 106.875619 74.383868 
C 107.961938 73.297549 108.572311 71.823978 108.572311 70.287691 
C 108.572311 68.751404 107.961938 67.277832 106.875619 66.191513 
C 105.7893 65.105194 104.315728 64.494821 102.779441 64.494821 
C 101.243154 64.494821 99.769582 65.105194 98.683263 66.191513 
C 97.596944 67.277832 96.986571 68.751404 96.986571 70.287691 
C 96.986571 71.823978 97.596944 73.297549 98.683263 74.383868 
C 99.769582 75.470187 101.243154 76.080561 102.779441 76.080561 
z
" clip-path="url(#p8d4a5a1cb2)" style="fill: #92b4fe; stroke: #92b4fe"/>
    <path d="M 81.705426 181.952569 
C 83.447538 181.952569 85.118533 181.26042 86.350392 180.028561 
C 87.582251 178.796701 88.2744 177.125707 88.2744 175.383594 
C 88.2744 173.641482 87.582251 171.970487 86.350392 170.738628 
C 85.118533 169.506768 83.447538 168.81462 81.705426 168.81462 
C 79.963313 168.81462 78.292319 169.506768 77.060459 170.738628 
C 75.8286 171.970487 75.136451 173.641482 75.136451 175.383594 
C 75.136451 177.125707 75.8286 178.796701 77.060459 180.028561 
C 78.292319 181.26042 79.963313 181.952569 81.705426 181.952569 
z
" clip-path="url(#p8d4a5a1cb2)" style="fill: #799cf8; stroke: #799cf8"/>
    <path d="M 182.451966 145.594067 
C 182.888875 145.594067 183.307947 145.420482 183.616888 145.111541 
C 183.925829 144.8026 184.099415 144.383527 184.099415 143.946619 
C 184.099415 143.50971 183.925829 143.090637 183.616888 142.781696 
C 183.307947 142.472755 182.888875 142.29917 182.451966 142.29917 
C 182.015058 142.29917 181.595985 142.472755 181.287044 142.781696 
C 180.978103 143.090637 180.804518 143.50971 180.804518 143.946619 
C 180.804518 144.383527 180.978103 144.8026 181.287044 145.111541 
C 181.595985 145.420482 182.015058 145.594067 182.451966 145.594067 
z
" clip-path="url(#p8d4a5a1cb2)" style="fill: #e3d9d3; stroke: #e3d9d3"/>
    <path d="M 196.901015 119.577612 
C 197.709432 119.577612 198.484848 119.256424 199.056486 118.684787 
C 199.628123 118.113149 199.949311 117.337733 199.949311 116.529316 
C 199.949311 115.720898 199.628123 114.945483 199.056486 114.373845 
C 198.484848 113.802207 197.709432 113.48102 196.901015 113.48102 
C 196.092597 113.48102 195.317181 113.802207 194.745544 114.373845 
C 194.173906 114.945483 193.852718 115.720898 193.852718 116.529316 
C 193.852718 117.337733 194.173906 118.113149 194.745544 118.684787 
C 195.317181 119.256424 196.092597 119.577612 196.901015 119.577612 
z
" clip-path="url(#p8d4a5a1cb2)" style="fill: #edd1c2; stroke: #edd1c2"/>
    <path d="M 175.100616 129.155335 
C 175.311558 129.155335 175.51389 129.071526 175.663049 128.922367 
C 175.812208 128.773208 175.896016 128.570877 175.896016 128.359934 
C 175.896016 128.148991 175.812208 127.94666 175.663049 127.797501 
C 175.51389 127.648342 175.311558 127.564533 175.100616 127.564533 
C 174.889673 127.564533 174.687341 127.648342 174.538182 127.797501 
C 174.389023 127.94666 174.305215 128.148991 174.305215 128.359934 
C 174.305215 128.570877 174.389023 128.773208 174.538182 128.922367 
C 174.687341 129.071526 174.889673 129.155335 175.100616 129.155335 
z
" clip-path="url(#p8d4a5a1cb2)" style="fill: #dddcdc; stroke: #dddcdc"/>
    <path d="M 276.896144 33.201378 
C 278.689169 33.201378 280.408997 32.489002 281.676856 31.221143 
C 282.944716 29.953283 283.657092 28.233455 283.657092 26.440431 
C 283.657092 24.647407 282.944716 22.927579 281.676856 21.659719 
C 280.408997 20.39186 278.689169 19.679484 276.896144 19.679484 
C 275.10312 19.679484 273.383292 20.39186 272.115433 21.659719 
C 270.847573 22.927579 270.135197 24.647407 270.135197 26.440431 
C 270.135197 28.233455 270.847573 29.953283 272.115433 31.221143 
C 273.383292 32.489002 275.10312 33.201378 276.896144 33.201378 
z
" clip-path="url(#p8d4a5a1cb2)" style="fill: #e67259; stroke: #e67259"/>
    <path d="M 189.488748 92.346922 
C 190.133885 92.346922 190.752687 92.090607 191.208868 91.634425 
C 191.665049 91.178244 191.921365 90.559443 191.921365 89.914305 
C 191.921365 89.269167 191.665049 88.650366 191.208868 88.194185 
C 190.752687 87.738004 190.133885 87.481688 189.488748 87.481688 
C 188.84361 87.481688 188.224809 87.738004 187.768627 88.194185 
C 187.312446 88.650366 187.05613 89.269167 187.05613 89.914305 
C 187.05613 90.559443 187.312446 91.178244 187.768627 91.634425 
C 188.224809 92.090607 188.84361 92.346922 189.488748 92.346922 
z
" clip-path="url(#p8d4a5a1cb2)" style="fill: #e9d5cb; stroke: #e9d5cb"/>
    <path d="M 103.2816 121.538782 
C 104.812645 121.538782 106.281189 120.930491 107.363801 119.847878 
C 108.446414 118.765266 109.054704 117.296722 109.054704 115.765677 
C 109.054704 114.234632 108.446414 112.766089 107.363801 111.683476 
C 106.281189 110.600864 104.812645 109.992573 103.2816 109.992573 
C 101.750555 109.992573 100.282012 110.600864 99.199399 111.683476 
C 98.116787 112.766089 97.508496 114.234632 97.508496 115.765677 
C 97.508496 117.296722 98.116787 118.765266 99.199399 119.847878 
C 100.282012 120.930491 101.750555 121.538782 103.2816 121.538782 
z
" clip-path="url(#p8d4a5a1cb2)" style="fill: #93b5fe; stroke: #93b5fe"/>
    <path d="M 211.044868 79.45854 
C 212.096731 79.45854 213.105655 79.040631 213.849434 78.296851 
C 214.593214 77.553071 215.011124 76.544147 215.011124 75.492284 
C 215.011124 74.44042 214.593214 73.431497 213.849434 72.687717 
C 213.105655 71.943937 212.096731 71.526028 211.044868 71.526028 
C 209.993004 71.526028 208.984081 71.943937 208.240301 72.687717 
C 207.496521 73.431497 207.078611 74.44042 207.078611 75.492284 
C 207.078611 76.544147 207.496521 77.553071 208.240301 78.296851 
C 208.984081 79.040631 209.993004 79.45854 211.044868 79.45854 
z
" clip-path="url(#p8d4a5a1cb2)" style="fill: #f4c6af; stroke: #f4c6af"/>
    <path d="M 147.681595 62.49299 
C 148.642031 62.49299 149.563259 62.111405 150.24239 61.432274 
C 150.921521 60.753143 151.303107 59.831915 151.303107 58.871479 
C 151.303107 57.911042 150.921521 56.989814 150.24239 56.310683 
C 149.563259 55.631552 148.642031 55.249967 147.681595 55.249967 
C 146.721159 55.249967 145.79993 55.631552 145.120799 56.310683 
C 144.441668 56.989814 144.060083 57.911042 144.060083 58.871479 
C 144.060083 59.831915 144.441668 60.753143 145.120799 61.432274 
C 145.79993 62.111405 146.721159 62.49299 147.681595 62.49299 
z
" clip-path="url(#p8d4a5a1cb2)" style="fill: #c4d5f3; stroke: #c4d5f3"/>
    <path d="M 214.717867 165.276922 
C 215.824224 165.276922 216.885415 164.837362 217.667727 164.05505 
C 218.450039 163.272738 218.889599 162.211547 218.889599 161.10519 
C 218.889599 159.998834 218.450039 158.937642 217.667727 158.155331 
C 216.885415 157.373019 215.824224 156.933459 214.717867 156.933459 
C 213.611511 156.933459 212.550319 157.373019 211.768007 158.155331 
C 210.985695 158.937642 210.546135 159.998834 210.546135 161.10519 
C 210.546135 162.211547 210.985695 163.272738 211.768007 164.05505 
C 212.550319 164.837362 213.611511 165.276922 214.717867 165.276922 
z
" clip-path="url(#p8d4a5a1cb2)" style="fill: #f5c2aa; stroke: #f5c2aa"/>
    <path d="M 191.181761 142.504823 
C 191.867627 142.504823 192.525493 142.232325 193.010474 141.747345 
C 193.495454 141.262365 193.767952 140.604498 193.767952 139.918632 
C 193.767952 139.232766 193.495454 138.574899 193.010474 138.089919 
C 192.525493 137.604939 191.867627 137.332441 191.181761 137.332441 
C 190.495895 137.332441 189.838028 137.604939 189.353048 138.089919 
C 188.868067 138.574899 188.59557 139.232766 188.59557 139.918632 
C 188.59557 140.604498 188.868067 141.262365 189.353048 141.747345 
C 189.838028 142.232325 190.495895 142.504823 191.181761 142.504823 
z
" clip-path="url(#p8d4a5a1cb2)" style="fill: #ead5c9; stroke: #ead5c9"/>
    <path d="M 137.186643 95.528573 
C 138.308463 95.528573 139.384487 95.08287 140.177733 94.289623 
C 140.97098 93.496377 141.416684 92.420353 141.416684 91.298533 
C 141.416684 90.176713 140.97098 89.100689 140.177733 88.307443 
C 139.384487 87.514196 138.308463 87.068492 137.186643 87.068492 
C 136.064823 87.068492 134.988799 87.514196 134.195553 88.307443 
C 133.402306 89.100689 132.956603 90.176713 132.956603 91.298533 
C 132.956603 92.420353 133.402306 93.496377 134.195553 94.289623 
C 134.988799 95.08287 136.064823 95.528573 137.186643 95.528573 
z
" clip-path="url(#p8d4a5a1cb2)" style="fill: #b9d0f9; stroke: #b9d0f9"/>
    <path d="M 131.867493 91.99704 
C 133.062816 91.99704 134.209342 91.522133 135.054563 90.676913 
C 135.899783 89.831692 136.37469 88.685166 136.37469 87.489844 
C 136.37469 86.294521 135.899783 85.147995 135.054563 84.302775 
C 134.209342 83.457554 133.062816 82.982647 131.867493 82.982647 
C 130.672171 82.982647 129.525645 83.457554 128.680424 84.302775 
C 127.835204 85.147995 127.360297 86.294521 127.360297 87.489844 
C 127.360297 88.685166 127.835204 89.831692 128.680424 90.676913 
C 129.525645 91.522133 130.672171 91.99704 131.867493 91.99704 
z
" clip-path="url(#p8d4a5a1cb2)" style="fill: #b3cdfb; stroke: #b3cdfb"/>
    <path d="M 116.214187 69.498034 
C 117.603433 69.498034 118.935966 68.946081 119.918312 67.963735 
C 120.900657 66.98139 121.452611 65.648856 121.452611 64.25961 
C 121.452611 62.870363 120.900657 61.53783 119.918312 60.555485 
C 118.935966 59.573139 117.603433 59.021186 116.214187 59.021186 
C 114.82494 59.021186 113.492407 59.573139 112.510061 60.555485 
C 111.527716 61.53783 110.975762 62.870363 110.975762 64.25961 
C 110.975762 65.648856 111.527716 66.98139 112.510061 67.963735 
C 113.492407 68.946081 114.82494 69.498034 116.214187 69.498034 
z
" clip-path="url(#p8d4a5a1cb2)" style="fill: #a1c0ff; stroke: #a1c0ff"/>
    <path d="M 229.272125 90.192254 
C 230.572141 90.192254 231.819087 89.675752 232.738338 88.756501 
C 233.657588 87.837251 234.17409 86.590305 234.17409 85.290288 
C 234.17409 83.990272 233.657588 82.743325 232.738338 81.824075 
C 231.819087 80.904825 230.572141 80.388323 229.272125 80.388323 
C 227.972108 80.388323 226.725162 80.904825 225.805912 81.824075 
C 224.886661 82.743325 224.370159 83.990272 224.370159 85.290288 
C 224.370159 86.590305 224.886661 87.837251 225.805912 88.756501 
C 226.725162 89.675752 227.972108 90.192254 229.272125 90.192254 
z
" clip-path="url(#p8d4a5a1cb2)" style="fill: #f7b497; stroke: #f7b497"/>
    <path d="M 164.163718 72.5243 
C 164.791961 72.5243 165.394558 72.274696 165.838793 71.830461 
C 166.283028 71.386225 166.532632 70.783629 166.532632 70.155385 
C 166.532632 69.527142 166.283028 68.924545 165.838793 68.48031 
C 165.394558 68.036075 164.791961 67.786471 164.163718 67.786471 
C 163.535474 67.786471 162.932877 68.036075 162.488642 68.48031 
C 162.044407 68.924545 161.794803 69.527142 161.794803 70.155385 
C 161.794803 70.783629 162.044407 71.386225 162.488642 71.830461 
C 162.932877 72.274696 163.535474 72.5243 164.163718 72.5243 
z
" clip-path="url(#p8d4a5a1cb2)" style="fill: #d4dbe6; stroke: #d4dbe6"/>
    <path d="M 223.933866 79.313909 
C 225.16639 79.313909 226.348599 78.824222 227.220124 77.952696 
C 228.09165 77.08117 228.581337 75.898961 228.581337 74.666438 
C 228.581337 73.433914 228.09165 72.251705 227.220124 71.380179 
C 226.348599 70.508653 225.16639 70.018966 223.933866 70.018966 
C 222.701342 70.018966 221.519133 70.508653 220.647608 71.380179 
C 219.776082 72.251705 219.286395 73.433914 219.286395 74.666438 
C 219.286395 75.898961 219.776082 77.08117 220.647608 77.952696 
C 221.519133 78.824222 222.701342 79.313909 223.933866 79.313909 
z
" clip-path="url(#p8d4a5a1cb2)" style="fill: #f7b99e; stroke: #f7b99e"/>
    <path d="M 134.145991 66.545219 
C 135.310396 66.545219 136.427267 66.082596 137.250626 65.259238 
C 138.073985 64.435879 138.536608 63.319008 138.536608 62.154602 
C 138.536608 60.990197 138.073985 59.873326 137.250626 59.049967 
C 136.427267 58.226608 135.310396 57.763985 134.145991 57.763985 
C 132.981585 57.763985 131.864714 58.226608 131.041355 59.049967 
C 130.217996 59.873326 129.755373 60.990197 129.755373 62.154602 
C 129.755373 63.319008 130.217996 64.435879 131.041355 65.259238 
C 131.864714 66.082596 132.981585 66.545219 134.145991 66.545219 
z
" clip-path="url(#p8d4a5a1cb2)" style="fill: #b5cdfa; stroke: #b5cdfa"/>
    <path d="M 218.108239 153.243864 
C 219.262614 153.243864 220.369865 152.785226 221.186131 151.96896 
C 222.002398 151.152693 222.461036 150.045443 222.461036 148.891068 
C 222.461036 147.736693 222.002398 146.629443 221.186131 145.813176 
C 220.369865 144.99691 219.262614 144.538272 218.108239 144.538272 
C 216.953864 144.538272 215.846614 144.99691 215.030348 145.813176 
C 214.214081 146.629443 213.755443 147.736693 213.755443 148.891068 
C 213.755443 150.045443 214.214081 151.152693 215.030348 151.96896 
C 215.846614 152.785226 216.953864 153.243864 218.108239 153.243864 
z
" clip-path="url(#p8d4a5a1cb2)" style="fill: #f6bfa6; stroke: #f6bfa6"/>
    <path d="M 292.627525 149.606857 
C 294.555904 149.606857 296.405561 148.840704 297.76913 147.477134 
C 299.1327 146.113564 299.898853 144.263907 299.898853 142.335528 
C 299.898853 140.407149 299.1327 138.557492 297.76913 137.193923 
C 296.405561 135.830353 294.555904 135.0642 292.627525 135.0642 
C 290.699146 135.0642 288.849489 135.830353 287.485919 137.193923 
C 286.122349 138.557492 285.356196 140.407149 285.356196 142.335528 
C 285.356196 144.263907 286.122349 146.113564 287.485919 147.477134 
C 288.849489 148.840704 290.699146 149.606857 292.627525 149.606857 
z
" clip-path="url(#p8d4a5a1cb2)" style="fill: #d95847; stroke: #d95847"/>
    <path d="M 251.707847 88.116513 
C 253.259756 88.116513 254.748311 87.499933 255.845677 86.402568 
C 256.943042 85.305202 257.559622 83.816647 257.559622 82.264738 
C 257.559622 80.712829 256.943042 79.224273 255.845677 78.126908 
C 254.748311 77.029542 253.259756 76.412963 251.707847 76.412963 
C 250.155938 76.412963 248.667382 77.029542 247.570017 78.126908 
C 246.472651 79.224273 245.856072 80.712829 245.856072 82.264738 
C 245.856072 83.816647 246.472651 85.305202 247.570017 86.402568 
C 248.667382 87.499933 250.155938 88.116513 251.707847 88.116513 
z
" clip-path="url(#p8d4a5a1cb2)" style="fill: #f4987a; stroke: #f4987a"/>
    <path d="M 93.368055 160.217072 
C 94.999473 160.217072 96.564292 159.568903 97.717879 158.415316 
C 98.871465 157.26173 99.519635 155.696911 99.519635 154.065492 
C 99.519635 152.434074 98.871465 150.869255 97.717879 149.715668 
C 96.564292 148.562082 94.999473 147.913912 93.368055 147.913912 
C 91.736637 147.913912 90.171817 148.562082 89.018231 149.715668 
C 87.864644 150.869255 87.216475 152.434074 87.216475 154.065492 
C 87.216475 155.696911 87.864644 157.26173 89.018231 158.415316 
C 90.171817 159.568903 91.736637 160.217072 93.368055 160.217072 
z
" clip-path="url(#p8d4a5a1cb2)" style="fill: #86a9fc; stroke: #86a9fc"/>
    <path d="M 225.964624 133.797177 
C 227.22325 133.797177 228.430495 133.29712 229.320478 132.407137 
C 230.21046 131.517154 230.710518 130.309909 230.710518 129.051284 
C 230.710518 127.792658 230.21046 126.585413 229.320478 125.69543 
C 228.430495 124.805447 227.22325 124.30539 225.964624 124.30539 
C 224.705998 124.30539 223.498753 124.805447 222.608771 125.69543 
C 221.718788 126.585413 221.218731 127.792658 221.218731 129.051284 
C 221.218731 130.309909 221.718788 131.517154 222.608771 132.407137 
C 223.498753 133.29712 224.705998 133.797177 225.964624 133.797177 
z
" clip-path="url(#p8d4a5a1cb2)" style="fill: #f7b79b; stroke: #f7b79b"/>
    <path d="M 188.63705 44.385082 
C 189.260693 44.385082 189.858878 44.137306 190.299861 43.696323 
C 190.740844 43.25534 190.988621 42.657155 190.988621 42.033511 
C 190.988621 41.409867 190.740844 40.811682 190.299861 40.370699 
C 189.858878 39.929716 189.260693 39.68194 188.63705 39.68194 
C 188.013406 39.68194 187.415221 39.929716 186.974238 40.370699 
C 186.533255 40.811682 186.285478 41.409867 186.285478 42.033511 
C 186.285478 42.657155 186.533255 43.25534 186.974238 43.696323 
C 187.415221 44.137306 188.013406 44.385082 188.63705 44.385082 
z
" clip-path="url(#p8d4a5a1cb2)" style="fill: #e8d6cc; stroke: #e8d6cc"/>
    <path d="M 161.142804 177.107769 
C 161.843816 177.107769 162.516211 176.829254 163.011901 176.333564 
C 163.507591 175.837873 163.786106 175.165479 163.786106 174.464467 
C 163.786106 173.763455 163.507591 173.09106 163.011901 172.59537 
C 162.516211 172.09968 161.843816 171.821165 161.142804 171.821165 
C 160.441792 171.821165 159.769398 172.09968 159.273707 172.59537 
C 158.778017 173.09106 158.499502 173.763455 158.499502 174.464467 
C 158.499502 175.165479 158.778017 175.837873 159.273707 176.333564 
C 159.769398 176.829254 160.441792 177.107769 161.142804 177.107769 
z
" clip-path="url(#p8d4a5a1cb2)" style="fill: #d1dae9; stroke: #d1dae9"/>
    <path d="M 326.781818 75.84162 
C 328.975501 75.84162 331.079632 74.970061 332.6308 73.418893 
C 334.181968 71.867724 335.053528 69.763594 335.053528 67.569911 
C 335.053528 65.376228 334.181968 63.272097 332.6308 61.720929 
C 331.079632 60.16976 328.975501 59.298201 326.781818 59.298201 
C 324.588135 59.298201 322.484004 60.16976 320.932836 61.720929 
C 319.381668 63.272097 318.510108 65.376228 318.510108 67.569911 
C 318.510108 69.763594 319.381668 71.867724 320.932836 73.418893 
C 322.484004 74.970061 324.588135 75.84162 326.781818 75.84162 
z
" clip-path="url(#p8d4a5a1cb2)" style="fill: #b40426; stroke: #b40426"/>
    <path d="M 175.033029 168.711933 
C 175.24904 168.711933 175.456234 168.62611 175.608977 168.473367 
C 175.76172 168.320624 175.847542 168.113431 175.847542 167.897419 
C 175.847542 167.681408 175.76172 167.474215 175.608977 167.321472 
C 175.456234 167.168729 175.24904 167.082906 175.033029 167.082906 
C 174.817018 167.082906 174.609824 167.168729 174.457081 167.321472 
C 174.304338 167.474215 174.218516 167.681408 174.218516 167.897419 
C 174.218516 168.113431 174.304338 168.320624 174.457081 168.473367 
C 174.609824 168.62611 174.817018 168.711933 175.033029 168.711933 
z
" clip-path="url(#p8d4a5a1cb2)" style="fill: #dddcdc; stroke: #dddcdc"/>
    <path d="M 251.591551 80.521989 
C 253.14226 80.521989 254.629664 79.905886 255.726181 78.809369 
C 256.822697 77.712852 257.4388 76.225448 257.4388 74.674739 
C 257.4388 73.12403 256.822697 71.636626 255.726181 70.540109 
C 254.629664 69.443593 253.14226 68.82749 251.591551 68.82749 
C 250.040842 68.82749 248.553438 69.443593 247.456921 70.540109 
C 246.360404 71.636626 245.744301 73.12403 245.744301 74.674739 
C 245.744301 76.225448 246.360404 77.712852 247.456921 78.809369 
C 248.553438 79.905886 250.040842 80.521989 251.591551 80.521989 
z
" clip-path="url(#p8d4a5a1cb2)" style="fill: #f4987a; stroke: #f4987a"/>
    <path d="M 259.748985 66.796021 
C 261.381741 66.796021 262.947844 66.14732 264.102377 64.992786 
C 265.25691 63.838253 265.905611 62.27215 265.905611 60.639394 
C 265.905611 59.006637 265.25691 57.440535 264.102377 56.286001 
C 262.947844 55.131468 261.381741 54.482767 259.748985 54.482767 
C 258.116228 54.482767 256.550125 55.131468 255.395592 56.286001 
C 254.241059 57.440535 253.592358 59.006637 253.592358 60.639394 
C 253.592358 62.27215 254.241059 63.838253 255.395592 64.992786 
C 256.550125 66.14732 258.116228 66.796021 259.748985 66.796021 
z
" clip-path="url(#p8d4a5a1cb2)" style="fill: #f18d6f; stroke: #f18d6f"/>
    <path d="M 194.375988 177.052726 
C 195.132751 177.052726 195.85862 176.752061 196.393732 176.21695 
C 196.928843 175.681838 197.229508 174.955969 197.229508 174.199206 
C 197.229508 173.442444 196.928843 172.716575 196.393732 172.181463 
C 195.85862 171.646351 195.132751 171.345687 194.375988 171.345687 
C 193.619226 171.345687 192.893357 171.646351 192.358245 172.181463 
C 191.823133 172.716575 191.522469 173.442444 191.522469 174.199206 
C 191.522469 174.955969 191.823133 175.681838 192.358245 176.21695 
C 192.893357 176.752061 193.619226 177.052726 194.375988 177.052726 
z
" clip-path="url(#p8d4a5a1cb2)" style="fill: #ecd3c5; stroke: #ecd3c5"/>
    <path d="M 217.468173 122.508378 
C 218.613637 122.508378 219.71234 122.05328 220.522305 121.243315 
C 221.33227 120.43335 221.787368 119.334647 221.787368 118.189184 
C 221.787368 117.04372 221.33227 115.945017 220.522305 115.135052 
C 219.71234 114.325087 218.613637 113.869989 217.468173 113.869989 
C 216.32271 113.869989 215.224007 114.325087 214.414042 115.135052 
C 213.604076 115.945017 213.148979 117.04372 213.148979 118.189184 
C 213.148979 119.334647 213.604076 120.43335 214.414042 121.243315 
C 215.224007 122.05328 216.32271 122.508378 217.468173 122.508378 
z
" clip-path="url(#p8d4a5a1cb2)" style="fill: #f6bfa6; stroke: #f6bfa6"/>
    <path d="M 162.60309 121.874405 
C 163.269919 121.874405 163.909525 121.609471 164.381044 121.137952 
C 164.852563 120.666433 165.117497 120.026826 165.117497 119.359998 
C 165.117497 118.693169 164.852563 118.053563 164.381044 117.582044 
C 163.909525 117.110525 163.269919 116.845591 162.60309 116.845591 
C 161.936262 116.845591 161.296655 117.110525 160.825136 117.582044 
C 160.353617 118.053563 160.088683 118.693169 160.088683 119.359998 
C 160.088683 120.026826 160.353617 120.666433 160.825136 121.137952 
C 161.296655 121.609471 161.936262 121.874405 162.60309 121.874405 
z
" clip-path="url(#p8d4a5a1cb2)" style="fill: #d2dbe8; stroke: #d2dbe8"/>
    <path d="M 135.320952 159.369551 
C 136.469089 159.369551 137.570355 158.913392 138.382211 158.101536 
C 139.194066 157.289681 139.650226 156.188414 139.650226 155.040278 
C 139.650226 153.892141 139.194066 152.790874 138.382211 151.979019 
C 137.570355 151.167164 136.469089 150.711004 135.320952 150.711004 
C 134.172815 150.711004 133.071548 151.167164 132.259693 151.979019 
C 131.447838 152.790874 130.991678 153.892141 130.991678 155.040278 
C 130.991678 156.188414 131.447838 157.289681 132.259693 158.101536 
C 133.071548 158.913392 134.172815 159.369551 135.320952 159.369551 
z
" clip-path="url(#p8d4a5a1cb2)" style="fill: #b6cefa; stroke: #b6cefa"/>
    <path d="M 58.642933 81.201471 
C 60.585458 81.201471 62.448683 80.429698 63.822256 79.056125 
C 65.195828 77.682553 65.967601 75.819327 65.967601 73.876802 
C 65.967601 71.934278 65.195828 70.071052 63.822256 68.69748 
C 62.448683 67.323907 60.585458 66.552134 58.642933 66.552134 
C 56.700408 66.552134 54.837182 67.323907 53.46361 68.69748 
C 52.090037 70.071052 51.318264 71.934278 51.318264 73.876802 
C 51.318264 75.819327 52.090037 77.682553 53.46361 79.056125 
C 54.837182 80.429698 56.700408 81.201471 58.642933 81.201471 
z
" clip-path="url(#p8d4a5a1cb2)" style="fill: #5f7fe8; stroke: #5f7fe8"/>
    <path d="M 240.331607 215.426504 
C 241.761349 215.426504 243.132724 214.858462 244.143704 213.847482 
C 245.154684 212.836502 245.722726 211.465126 245.722726 210.035385 
C 245.722726 208.605643 245.154684 207.234268 244.143704 206.223288 
C 243.132724 205.212308 241.761349 204.644265 240.331607 204.644265 
C 238.901866 204.644265 237.53049 205.212308 236.51951 206.223288 
C 235.50853 207.234268 234.940488 208.605643 234.940488 210.035385 
C 234.940488 211.465126 235.50853 212.836502 236.51951 213.847482 
C 237.53049 214.858462 238.901866 215.426504 240.331607 215.426504 
z
" clip-path="url(#p8d4a5a1cb2)" style="fill: #f7a688; stroke: #f7a688"/>
    <path d="M 213.245403 60.814139 
C 214.330243 60.814139 215.370796 60.383128 216.137894 59.616031 
C 216.904991 58.848933 217.336002 57.80838 217.336002 56.723541 
C 217.336002 55.638701 216.904991 54.598148 216.137894 53.831051 
C 215.370796 53.063953 214.330243 52.632942 213.245403 52.632942 
C 212.160564 52.632942 211.120011 53.063953 210.352913 53.831051 
C 209.585816 54.598148 209.154805 55.638701 209.154805 56.723541 
C 209.154805 57.80838 209.585816 58.848933 210.352913 59.616031 
C 211.120011 60.383128 212.160564 60.814139 213.245403 60.814139 
z
" clip-path="url(#p8d4a5a1cb2)" style="fill: #f5c4ac; stroke: #f5c4ac"/>
    <path d="M 201.424439 106.357373 
C 202.317959 106.357373 203.175002 106.002374 203.806815 105.37056 
C 204.438629 104.738747 204.793627 103.881704 204.793627 102.988185 
C 204.793627 102.094665 204.438629 101.237622 203.806815 100.605809 
C 203.175002 99.973995 202.317959 99.618997 201.424439 99.618997 
C 200.53092 99.618997 199.673877 99.973995 199.042064 100.605809 
C 198.41025 101.237622 198.055251 102.094665 198.055251 102.988185 
C 198.055251 103.881704 198.41025 104.738747 199.042064 105.37056 
C 199.673877 106.002374 200.53092 106.357373 201.424439 106.357373 
z
" clip-path="url(#p8d4a5a1cb2)" style="fill: #f0cdbb; stroke: #f0cdbb"/>
    <path d="M 202.610643 35.448641 
C 203.525169 35.448641 204.402362 35.085296 205.04903 34.438628 
C 205.695697 33.79196 206.059042 32.914768 206.059042 32.000242 
C 206.059042 31.085716 205.695697 30.208523 205.04903 29.561855 
C 204.402362 28.915188 203.525169 28.551843 202.610643 28.551843 
C 201.696117 28.551843 200.818925 28.915188 200.172257 29.561855 
C 199.52559 30.208523 199.162245 31.085716 199.162245 32.000242 
C 199.162245 32.914768 199.52559 33.79196 200.172257 34.438628 
C 200.818925 35.085296 201.696117 35.448641 202.610643 35.448641 
z
" clip-path="url(#p8d4a5a1cb2)" style="fill: #f1cdba; stroke: #f1cdba"/>
    <path d="M 100.577628 89.175884 
C 102.136692 89.175884 103.63211 88.556462 104.734534 87.454038 
C 105.836958 86.351613 106.456381 84.856195 106.456381 83.297132 
C 106.456381 81.738068 105.836958 80.24265 104.734534 79.140226 
C 103.63211 78.037802 102.136692 77.418379 100.577628 77.418379 
C 99.018565 77.418379 97.523147 78.037802 96.420722 79.140226 
C 95.318298 80.24265 94.698876 81.738068 94.698876 83.297132 
C 94.698876 84.856195 95.318298 86.351613 96.420722 87.454038 
C 97.523147 88.556462 99.018565 89.175884 100.577628 89.175884 
z
" clip-path="url(#p8d4a5a1cb2)" style="fill: #8fb1fe; stroke: #8fb1fe"/>
    <path d="M 153.953892 33.599554 
C 154.803364 33.599554 155.618158 33.262055 156.218825 32.661388 
C 156.819492 32.06072 157.156991 31.245926 157.156991 30.396455 
C 157.156991 29.546983 156.819492 28.732189 156.218825 28.131521 
C 155.618158 27.530854 154.803364 27.193355 153.953892 27.193355 
C 153.10442 27.193355 152.289626 27.530854 151.688959 28.131521 
C 151.088291 28.732189 150.750793 29.546983 150.750793 30.396455 
C 150.750793 31.245926 151.088291 32.06072 151.688959 32.661388 
C 152.289626 33.262055 153.10442 33.599554 153.953892 33.599554 
z
" clip-path="url(#p8d4a5a1cb2)" style="fill: #cad8ef; stroke: #cad8ef"/>
    <path d="M 175.436983 136.262286 
C 175.620631 136.262286 175.796782 136.189321 175.926641 136.059463 
C 176.056499 135.929604 176.129463 135.753453 176.129463 135.569805 
C 176.129463 135.386157 176.056499 135.210006 175.926641 135.080148 
C 175.796782 134.950289 175.620631 134.877325 175.436983 134.877325 
C 175.253335 134.877325 175.077184 134.950289 174.947326 135.080148 
C 174.817467 135.210006 174.744503 135.386157 174.744503 135.569805 
C 174.744503 135.753453 174.817467 135.929604 174.947326 136.059463 
C 175.077184 136.189321 175.253335 136.262286 175.436983 136.262286 
z
" clip-path="url(#p8d4a5a1cb2)" style="fill: #dddcdc; stroke: #dddcdc"/>
    <path d="M 187.031801 146.455336 
C 187.612776 146.455336 188.170035 146.224512 188.580847 145.8137 
C 188.991658 145.402889 189.222482 144.84563 189.222482 144.264655 
C 189.222482 143.683679 188.991658 143.12642 188.580847 142.715609 
C 188.170035 142.304797 187.612776 142.073973 187.031801 142.073973 
C 186.450825 142.073973 185.893567 142.304797 185.482755 142.715609 
C 185.071943 143.12642 184.841119 143.683679 184.841119 144.264655 
C 184.841119 144.84563 185.071943 145.402889 185.482755 145.8137 
C 185.893567 146.224512 186.450825 146.455336 187.031801 146.455336 
z
" clip-path="url(#p8d4a5a1cb2)" style="fill: #e7d7ce; stroke: #e7d7ce"/>
    <path d="M 261.567073 151.251467 
C 263.21756 151.251467 264.80067 150.595722 265.96774 149.428651 
C 267.134811 148.26158 267.790557 146.678471 267.790557 145.027984 
C 267.790557 143.377496 267.134811 141.794387 265.96774 140.627316 
C 264.80067 139.460245 263.21756 138.8045 261.567073 138.8045 
C 259.916586 138.8045 258.333476 139.460245 257.166405 140.627316 
C 255.999335 141.794387 255.343589 143.377496 255.343589 145.027984 
C 255.343589 146.678471 255.999335 148.26158 257.166405 149.428651 
C 258.333476 150.595722 259.916586 151.251467 261.567073 151.251467 
z
" clip-path="url(#p8d4a5a1cb2)" style="fill: #f08a6c; stroke: #f08a6c"/>
    <path d="M 219.984063 173.494686 
C 221.164167 173.494686 222.296095 173.025826 223.130555 172.191366 
C 223.965014 171.356907 224.433874 170.224979 224.433874 169.044875 
C 224.433874 167.864771 223.965014 166.732843 223.130555 165.898384 
C 222.296095 165.063924 221.164167 164.595064 219.984063 164.595064 
C 218.80396 164.595064 217.672031 165.063924 216.837572 165.898384 
C 216.003113 166.732843 215.534253 167.864771 215.534253 169.044875 
C 215.534253 170.224979 216.003113 171.356907 216.837572 172.191366 
C 217.672031 173.025826 218.80396 173.494686 219.984063 173.494686 
z
" clip-path="url(#p8d4a5a1cb2)" style="fill: #f6bda2; stroke: #f6bda2"/>
    <path d="M 257.724359 83.929846 
C 259.337141 83.929846 260.884085 83.289081 262.024495 82.148672 
C 263.164904 81.008262 263.805669 79.461318 263.805669 77.848536 
C 263.805669 76.235754 263.164904 74.68881 262.024495 73.548401 
C 260.884085 72.407992 259.337141 71.767226 257.724359 71.767226 
C 256.111577 71.767226 254.564633 72.407992 253.424224 73.548401 
C 252.283815 74.68881 251.643049 76.235754 251.643049 77.848536 
C 251.643049 79.461318 252.283815 81.008262 253.424224 82.148672 
C 254.564633 83.289081 256.111577 83.929846 257.724359 83.929846 
z
" clip-path="url(#p8d4a5a1cb2)" style="fill: #f29072; stroke: #f29072"/>
    <path d="M 177.098542 77.020928 
C 177.238097 77.020928 177.371955 76.965482 177.470635 76.866802 
C 177.569316 76.768121 177.624761 76.634264 177.624761 76.494709 
C 177.624761 76.355154 177.569316 76.221296 177.470635 76.122616 
C 177.371955 76.023935 177.238097 75.96849 177.098542 75.96849 
C 176.958987 75.96849 176.825129 76.023935 176.726449 76.122616 
C 176.627769 76.221296 176.572323 76.355154 176.572323 76.494709 
C 176.572323 76.634264 176.627769 76.768121 176.726449 76.866802 
C 176.825129 76.965482 176.958987 77.020928 177.098542 77.020928 
z
" clip-path="url(#p8d4a5a1cb2)" style="fill: #dfdbd9; stroke: #dfdbd9"/>
    <path d="M 137.423965 32.572745 
C 138.542393 32.572745 139.615164 32.128389 140.406011 31.337541 
C 141.196859 30.546693 141.641215 29.473922 141.641215 28.355494 
C 141.641215 27.237066 141.196859 26.164296 140.406011 25.373448 
C 139.615164 24.5826 138.542393 24.138244 137.423965 24.138244 
C 136.305537 24.138244 135.232767 24.5826 134.441919 25.373448 
C 133.651071 26.164296 133.206715 27.237066 133.206715 28.355494 
C 133.206715 29.473922 133.651071 30.546693 134.441919 31.337541 
C 135.232767 32.128389 136.305537 32.572745 137.423965 32.572745 
z
" clip-path="url(#p8d4a5a1cb2)" style="fill: #b9d0f9; stroke: #b9d0f9"/>
    <path d="M 139.066382 96.694528 
C 140.161047 96.694528 141.211025 96.259613 141.98507 95.485568 
C 142.759115 94.711523 143.19403 93.661545 143.19403 92.56688 
C 143.19403 91.472215 142.759115 90.422237 141.98507 89.648192 
C 141.211025 88.874147 140.161047 88.439232 139.066382 88.439232 
C 137.971717 88.439232 136.921739 88.874147 136.147694 89.648192 
C 135.373649 90.422237 134.938734 91.472215 134.938734 92.56688 
C 134.938734 93.661545 135.373649 94.711523 136.147694 95.485568 
C 136.921739 96.259613 137.971717 96.694528 139.066382 96.694528 
z
" clip-path="url(#p8d4a5a1cb2)" style="fill: #bbd1f8; stroke: #bbd1f8"/>
    <path d="M 274.809269 143.761979 
C 276.583561 143.761979 278.285423 143.057045 279.540037 141.80243 
C 280.794652 140.547816 281.499586 138.845955 281.499586 137.071662 
C 281.499586 135.297369 280.794652 133.595508 279.540037 132.340893 
C 278.285423 131.086279 276.583561 130.381345 274.809269 130.381345 
C 273.034976 130.381345 271.333114 131.086279 270.0785 132.340893 
C 268.823885 133.595508 268.118951 135.297369 268.118951 137.071662 
C 268.118951 138.845955 268.823885 140.547816 270.0785 141.80243 
C 271.333114 143.057045 273.034976 143.761979 274.809269 143.761979 
z
" clip-path="url(#p8d4a5a1cb2)" style="fill: #e8765c; stroke: #e8765c"/>
    <path d="M 49.082138 170.712172 
C 51.101924 170.712172 53.039256 169.909703 54.46746 168.481499 
C 55.895664 167.053295 56.698134 165.115962 56.698134 163.096177 
C 56.698134 161.076391 55.895664 159.139059 54.46746 157.710855 
C 53.039256 156.282651 51.101924 155.480181 49.082138 155.480181 
C 47.062353 155.480181 45.12502 156.282651 43.696816 157.710855 
C 42.268612 159.139059 41.466143 161.076391 41.466143 163.096177 
C 41.466143 165.115962 42.268612 167.053295 43.696816 168.481499 
C 45.12502 169.909703 47.062353 170.712172 49.082138 170.712172 
z
" clip-path="url(#p8d4a5a1cb2)" style="fill: #5572df; stroke: #5572df"/>
    <path d="M 238.907204 83.807524 
C 240.320905 83.807524 241.676896 83.245855 242.676534 82.246217 
C 243.676172 81.246579 244.237841 79.890588 244.237841 78.476887 
C 244.237841 77.063185 243.676172 75.707195 242.676534 74.707557 
C 241.676896 73.707919 240.320905 73.146249 238.907204 73.146249 
C 237.493502 73.146249 236.137512 73.707919 235.137874 74.707557 
C 234.138236 75.707195 233.576566 77.063185 233.576566 78.476887 
C 233.576566 79.890588 234.138236 81.246579 235.137874 82.246217 
C 236.137512 83.245855 237.493502 83.807524 238.907204 83.807524 
z
" clip-path="url(#p8d4a5a1cb2)" style="fill: #f7a889; stroke: #f7a889"/>
    <path d="M 309.378646 186.625405 
C 311.441413 186.625405 313.419971 185.80586 314.878568 184.347263 
C 316.337164 182.888667 317.15671 180.910108 317.15671 178.847342 
C 317.15671 176.784575 316.337164 174.806016 314.878568 173.34742 
C 313.419971 171.888824 311.441413 171.069278 309.378646 171.069278 
C 307.315879 171.069278 305.337321 171.888824 303.878724 173.34742 
C 302.420128 174.806016 301.600582 176.784575 301.600582 178.847342 
C 301.600582 180.910108 302.420128 182.888667 303.878724 184.347263 
C 305.337321 185.80586 307.315879 186.625405 309.378646 186.625405 
z
" clip-path="url(#p8d4a5a1cb2)" style="fill: #c83836; stroke: #c83836"/>
    <path d="M 183.498363 192.802856 
C 183.972065 192.802856 184.42643 192.614652 184.761388 192.279694 
C 185.096346 191.944736 185.28455 191.490371 185.28455 191.016669 
C 185.28455 190.542966 185.096346 190.088602 184.761388 189.753643 
C 184.42643 189.418685 183.972065 189.230481 183.498363 189.230481 
C 183.02466 189.230481 182.570295 189.418685 182.235337 189.753643 
C 181.900379 190.088602 181.712175 190.542966 181.712175 191.016669 
C 181.712175 191.490371 181.900379 191.944736 182.235337 192.279694 
C 182.570295 192.614652 183.02466 192.802856 183.498363 192.802856 
z
" clip-path="url(#p8d4a5a1cb2)" style="fill: #e4d9d2; stroke: #e4d9d2"/>
    <path d="M 239.336508 112.888029 
C 240.755063 112.888029 242.115709 112.324431 243.118779 111.321362 
C 244.121849 110.318292 244.685447 108.957646 244.685447 107.539091 
C 244.685447 106.120536 244.121849 104.75989 243.118779 103.75682 
C 242.115709 102.753751 240.755063 102.190153 239.336508 102.190153 
C 237.917953 102.190153 236.557307 102.753751 235.554238 103.75682 
C 234.551168 104.75989 233.98757 106.120536 233.98757 107.539091 
C 233.98757 108.957646 234.551168 110.318292 235.554238 111.321362 
C 236.557307 112.324431 237.917953 112.888029 239.336508 112.888029 
z
" clip-path="url(#p8d4a5a1cb2)" style="fill: #f7a889; stroke: #f7a889"/>
    <path d="M 197.894049 185.388246 
C 198.721899 185.388246 199.515954 185.059338 200.101332 184.473959 
C 200.68671 183.888581 201.015618 183.094526 201.015618 182.266676 
C 201.015618 181.438827 200.68671 180.644772 200.101332 180.059394 
C 199.515954 179.474015 198.721899 179.145107 197.894049 179.145107 
C 197.066199 179.145107 196.272145 179.474015 195.686766 180.059394 
C 195.101388 180.644772 194.77248 181.438827 194.77248 182.266676 
C 194.77248 183.094526 195.101388 183.888581 195.686766 184.473959 
C 196.272145 185.059338 197.066199 185.388246 197.894049 185.388246 
z
" clip-path="url(#p8d4a5a1cb2)" style="fill: #eed0c0; stroke: #eed0c0"/>
    <path d="M 245.272569 116.307145 
C 246.756606 116.307145 248.180061 115.71753 249.229434 114.668157 
C 250.278807 113.618784 250.868422 112.195329 250.868422 110.711292 
C 250.868422 109.227254 250.278807 107.803799 249.229434 106.754426 
C 248.180061 105.705053 246.756606 105.115439 245.272569 105.115439 
C 243.788531 105.115439 242.365076 105.705053 241.315703 106.754426 
C 240.26633 107.803799 239.676716 109.227254 239.676716 110.711292 
C 239.676716 112.195329 240.26633 113.618784 241.315703 114.668157 
C 242.365076 115.71753 243.788531 116.307145 245.272569 116.307145 
z
" clip-path="url(#p8d4a5a1cb2)" style="fill: #f5a081; stroke: #f5a081"/>
    <path d="M 255.998884 157.768132 
C 257.594446 157.768132 259.124873 157.134209 260.253105 156.005976 
C 261.381338 154.877743 262.015261 153.347317 262.015261 151.751755 
C 262.015261 150.156193 261.381338 148.625766 260.253105 147.497534 
C 259.124873 146.369301 257.594446 145.735378 255.998884 145.735378 
C 254.403322 145.735378 252.872896 146.369301 251.744663 147.497534 
C 250.61643 148.625766 249.982507 150.156193 249.982507 151.751755 
C 249.982507 153.347317 250.61643 154.877743 251.744663 156.005976 
C 252.872896 157.134209 254.403322 157.768132 255.998884 157.768132 
z
" clip-path="url(#p8d4a5a1cb2)" style="fill: #f29274; stroke: #f29274"/>
    <path d="M 229.418766 159.692593 
C 230.720587 159.692593 231.969264 159.175374 232.88979 158.254847 
C 233.810317 157.334321 234.327536 156.085644 234.327536 154.783823 
C 234.327536 153.482001 233.810317 152.233324 232.88979 151.312798 
C 231.969264 150.392271 230.720587 149.875052 229.418766 149.875052 
C 228.116945 149.875052 226.868267 150.392271 225.947741 151.312798 
C 225.027214 152.233324 224.509995 153.482001 224.509995 154.783823 
C 224.509995 156.085644 225.027214 157.334321 225.947741 158.254847 
C 226.868267 159.175374 228.116945 159.692593 229.418766 159.692593 
z
" clip-path="url(#p8d4a5a1cb2)" style="fill: #f7b396; stroke: #f7b396"/>
    <path d="M 234.151994 123.431803 
C 235.510778 123.431803 236.814093 122.891953 237.774898 121.931147 
C 238.735703 120.970342 239.275554 119.667028 239.275554 118.308244 
C 239.275554 116.94946 238.735703 115.646146 237.774898 114.685341 
C 236.814093 113.724535 235.510778 113.184685 234.151994 113.184685 
C 232.793211 113.184685 231.489896 113.724535 230.529091 114.685341 
C 229.568286 115.646146 229.028435 116.94946 229.028435 118.308244 
C 229.028435 119.667028 229.568286 120.970342 230.529091 121.931147 
C 231.489896 122.891953 232.793211 123.431803 234.151994 123.431803 
z
" clip-path="url(#p8d4a5a1cb2)" style="fill: #f7ad90; stroke: #f7ad90"/>
    <path d="M 209.007076 53.348495 
C 210.027452 53.348495 211.006174 52.943096 211.727689 52.221581 
C 212.449204 51.500066 212.854604 50.521344 212.854604 49.500967 
C 212.854604 48.480591 212.449204 47.501869 211.727689 46.780354 
C 211.006174 46.058839 210.027452 45.653439 209.007076 45.653439 
C 207.986699 45.653439 207.007978 46.058839 206.286463 46.780354 
C 205.564948 47.501869 205.159548 48.480591 205.159548 49.500967 
C 205.159548 50.521344 205.564948 51.500066 206.286463 52.221581 
C 207.007978 52.943096 207.986699 53.348495 209.007076 53.348495 
z
" clip-path="url(#p8d4a5a1cb2)" style="fill: #f3c8b2; stroke: #f3c8b2"/>
    <path d="M 161.986731 164.921077 
C 162.668197 164.921077 163.321843 164.650327 163.803712 164.168458 
C 164.285581 163.686589 164.556331 163.032943 164.556331 162.351477 
C 164.556331 161.670011 164.285581 161.016365 163.803712 160.534495 
C 163.321843 160.052626 162.668197 159.781877 161.986731 159.781877 
C 161.305265 159.781877 160.651619 160.052626 160.169749 160.534495 
C 159.68788 161.016365 159.417131 161.670011 159.417131 162.351477 
C 159.417131 163.032943 159.68788 163.686589 160.169749 164.168458 
C 160.651619 164.650327 161.305265 164.921077 161.986731 164.921077 
z
" clip-path="url(#p8d4a5a1cb2)" style="fill: #d2dbe8; stroke: #d2dbe8"/>
    <path d="M 232.971099 93.169278 
C 234.315897 93.169278 235.605796 92.634984 236.556712 91.684068 
C 237.507628 90.733152 238.041922 89.443252 238.041922 88.098454 
C 238.041922 86.753656 237.507628 85.463757 236.556712 84.512841 
C 235.605796 83.561925 234.315897 83.027631 232.971099 83.027631 
C 231.626301 83.027631 230.336401 83.561925 229.385485 84.512841 
C 228.434569 85.463757 227.900275 86.753656 227.900275 88.098454 
C 227.900275 89.443252 228.434569 90.733152 229.385485 91.684068 
C 230.336401 92.634984 231.626301 93.169278 232.971099 93.169278 
z
" clip-path="url(#p8d4a5a1cb2)" style="fill: #f7af91; stroke: #f7af91"/>
    <path d="M 151.206885 27.217464 
C 152.10664 27.217464 152.969665 26.859988 153.605889 26.223765 
C 154.242112 25.587541 154.599588 24.724516 154.599588 23.824761 
C 154.599588 22.925005 154.242112 22.06198 153.605889 21.425757 
C 152.969665 20.789534 152.10664 20.432057 151.206885 20.432057 
C 150.307129 20.432057 149.444104 20.789534 148.807881 21.425757 
C 148.171658 22.06198 147.814181 22.925005 147.814181 23.824761 
C 147.814181 24.724516 148.171658 25.587541 148.807881 26.223765 
C 149.444104 26.859988 150.307129 27.217464 151.206885 27.217464 
z
" clip-path="url(#p8d4a5a1cb2)" style="fill: #c7d7f0; stroke: #c7d7f0"/>
    <path d="M 300.488182 120.763733 
C 302.480753 120.763733 304.391982 119.972076 305.800942 118.563115 
C 307.209903 117.154155 308.001559 115.242926 308.001559 113.250355 
C 308.001559 111.257785 307.209903 109.346556 305.800942 107.937596 
C 304.391982 106.528635 302.480753 105.736978 300.488182 105.736978 
C 298.495611 105.736978 296.584383 106.528635 295.175422 107.937596 
C 293.766462 109.346556 292.974805 111.257785 292.974805 113.250355 
C 292.974805 115.242926 293.766462 117.154155 295.175422 118.563115 
C 296.584383 119.972076 298.495611 120.763733 300.488182 120.763733 
z
" clip-path="url(#p8d4a5a1cb2)" style="fill: #d24b40; stroke: #d24b40"/>
    <path d="M 229.293888 159.188708 
C 230.594172 159.188708 231.841375 158.672099 232.760815 157.752659 
C 233.680255 156.83322 234.196864 155.586016 234.196864 154.285732 
C 234.196864 152.985447 233.680255 151.738244 232.760815 150.818804 
C 231.841375 149.899364 230.594172 149.382756 229.293888 149.382756 
C 227.993603 149.382756 226.7464 149.899364 225.82696 150.818804 
C 224.90752 151.738244 224.390912 152.985447 224.390912 154.285732 
C 224.390912 155.586016 224.90752 156.83322 225.82696 157.752659 
C 226.7464 158.672099 227.993603 159.188708 229.293888 159.188708 
z
" clip-path="url(#p8d4a5a1cb2)" style="fill: #f7b396; stroke: #f7b396"/>
    <path d="M 22.418182 50.179818 
C 24.639285 50.179818 26.769716 49.297365 28.340273 47.726808 
C 29.91083 46.156251 30.793283 44.02582 30.793283 41.804717 
C 30.793283 39.583614 29.91083 37.453183 28.340273 35.882626 
C 26.769716 34.312069 24.639285 33.429615 22.418182 33.429615 
C 20.197079 33.429615 18.066648 34.312069 16.496091 35.882626 
C 14.925534 37.453183 14.04308 39.583614 14.04308 41.804717 
C 14.04308 44.02582 14.925534 46.156251 16.496091 47.726808 
C 18.066648 49.297365 20.197079 50.179818 22.418182 50.179818 
z
" clip-path="url(#p8d4a5a1cb2)" style="fill: #3b4cc0; stroke: #3b4cc0"/>
    <path d="M 87.036472 115.097365 
C 88.728884 115.097365 90.352207 114.424962 91.548923 113.228246 
C 92.74564 112.03153 93.418042 110.408207 93.418042 108.715795 
C 93.418042 107.023383 92.74564 105.40006 91.548923 104.203344 
C 90.352207 103.006628 88.728884 102.334226 87.036472 102.334226 
C 85.34406 102.334226 83.720737 103.006628 82.524021 104.203344 
C 81.327305 105.40006 80.654903 107.023383 80.654903 108.715795 
C 80.654903 110.408207 81.327305 112.03153 82.524021 113.228246 
C 83.720737 114.424962 85.34406 115.097365 87.036472 115.097365 
z
" clip-path="url(#p8d4a5a1cb2)" style="fill: #80a3fa; stroke: #80a3fa"/>
    <path d="M 239.498965 171.464953 
C 240.919352 171.464953 242.281755 170.900627 243.286121 169.896261 
C 244.290486 168.891896 244.854812 167.529493 244.854812 166.109105 
C 244.854812 164.688718 244.290486 163.326315 243.286121 162.32195 
C 242.281755 161.317584 240.919352 160.753258 239.498965 160.753258 
C 238.078577 160.753258 236.716174 161.317584 235.711809 162.32195 
C 234.707443 163.326315 234.143117 164.688718 234.143117 166.109105 
C 234.143117 167.529493 234.707443 168.891896 235.711809 169.896261 
C 236.716174 170.900627 238.078577 171.464953 239.498965 171.464953 
z
" clip-path="url(#p8d4a5a1cb2)" style="fill: #f7a889; stroke: #f7a889"/>
    <path d="M 126.795899 92.175756 
C 128.057321 92.175756 129.267248 91.674588 130.159208 90.782628 
C 131.051168 89.890668 131.552336 88.680741 131.552336 87.419319 
C 131.552336 86.157897 131.051168 84.94797 130.159208 84.05601 
C 129.267248 83.16405 128.057321 82.662882 126.795899 82.662882 
C 125.534477 82.662882 124.32455 83.16405 123.43259 84.05601 
C 122.54063 84.94797 122.039462 86.157897 122.039462 87.419319 
C 122.039462 88.680741 122.54063 89.890668 123.43259 90.782628 
C 124.32455 91.674588 125.534477 92.175756 126.795899 92.175756 
z
" clip-path="url(#p8d4a5a1cb2)" style="fill: #adc9fd; stroke: #adc9fd"/>
    <path d="M 260.57468 106.558337 
C 262.215513 106.558337 263.789362 105.906427 264.949606 104.746183 
C 266.10985 103.585939 266.76176 102.01209 266.76176 100.371257 
C 266.76176 98.730424 266.10985 97.156575 264.949606 95.996331 
C 263.789362 94.836087 262.215513 94.184177 260.57468 94.184177 
C 258.933847 94.184177 257.359998 94.836087 256.199754 95.996331 
C 255.03951 97.156575 254.3876 98.730424 254.3876 100.371257 
C 254.3876 102.01209 255.03951 103.585939 256.199754 104.746183 
C 257.359998 105.906427 258.933847 106.558337 260.57468 106.558337 
z
" clip-path="url(#p8d4a5a1cb2)" style="fill: #f08b6e; stroke: #f08b6e"/>
    <path d="M 193.707265 75.204284 
C 194.449746 75.204284 195.161916 74.909293 195.686929 74.38428 
C 196.211942 73.859267 196.506932 73.147097 196.506932 72.404617 
C 196.506932 71.662136 196.211942 70.949966 195.686929 70.424953 
C 195.161916 69.89994 194.449746 69.60495 193.707265 69.60495 
C 192.964785 69.60495 192.252615 69.89994 191.727602 70.424953 
C 191.202589 70.949966 190.907598 71.662136 190.907598 72.404617 
C 190.907598 73.147097 191.202589 73.859267 191.727602 74.38428 
C 192.252615 74.909293 192.964785 75.204284 193.707265 75.204284 
z
" clip-path="url(#p8d4a5a1cb2)" style="fill: #ecd3c5; stroke: #ecd3c5"/>
    <path d="M 198.814933 132.095627 
C 199.660404 132.095627 200.471361 131.759718 201.069199 131.161879 
C 201.667037 130.564041 202.002947 129.753084 202.002947 128.907613 
C 202.002947 128.062142 201.667037 127.251185 201.069199 126.653347 
C 200.471361 126.055508 199.660404 125.719599 198.814933 125.719599 
C 197.969461 125.719599 197.158505 126.055508 196.560666 126.653347 
C 195.962828 127.251185 195.626919 128.062142 195.626919 128.907613 
C 195.626919 129.753084 195.962828 130.564041 196.560666 131.161879 
C 197.158505 131.759718 197.969461 132.095627 198.814933 132.095627 
z
" clip-path="url(#p8d4a5a1cb2)" style="fill: #efcfbf; stroke: #efcfbf"/>
    <path d="M 264.922746 164.536634 
C 266.605468 164.536634 268.219497 163.868081 269.409362 162.678217 
C 270.599226 161.488352 271.267779 159.874323 271.267779 158.191601 
C 271.267779 156.508879 270.599226 154.89485 269.409362 153.704985 
C 268.219497 152.515121 266.605468 151.846568 264.922746 151.846568 
C 263.240024 151.846568 261.625995 152.515121 260.43613 153.704985 
C 259.246266 154.89485 258.577713 156.508879 258.577713 158.191601 
C 258.577713 159.874323 259.246266 161.488352 260.43613 162.678217 
C 261.625995 163.868081 263.240024 164.536634 264.922746 164.536634 
z
" clip-path="url(#p8d4a5a1cb2)" style="fill: #ee8669; stroke: #ee8669"/>
    <path d="M 144.706671 148.997312 
C 145.715478 148.997312 146.683104 148.596508 147.396439 147.883173 
C 148.109773 147.169839 148.510577 146.202213 148.510577 145.193406 
C 148.510577 144.184598 148.109773 143.216973 147.396439 142.503638 
C 146.683104 141.790303 145.715478 141.3895 144.706671 141.3895 
C 143.697863 141.3895 142.730238 141.790303 142.016903 142.503638 
C 141.303568 143.216973 140.902765 144.184598 140.902765 145.193406 
C 140.902765 146.202213 141.303568 147.169839 142.016903 147.883173 
C 142.730238 148.596508 143.697863 148.997312 144.706671 148.997312 
z
" clip-path="url(#p8d4a5a1cb2)" style="fill: #c0d4f5; stroke: #c0d4f5"/>
    <path d="M 126.857482 51.282684 
C 128.118122 51.282684 129.3273 50.781826 130.218707 49.890419 
C 131.110114 48.999012 131.610972 47.789835 131.610972 46.529195 
C 131.610972 45.268555 131.110114 44.059377 130.218707 43.16797 
C 129.3273 42.276563 128.118122 41.775705 126.857482 41.775705 
C 125.596842 41.775705 124.387665 42.276563 123.496258 43.16797 
C 122.604851 44.059377 122.103993 45.268555 122.103993 46.529195 
C 122.103993 47.789835 122.604851 48.999012 123.496258 49.890419 
C 124.387665 50.781826 125.596842 51.282684 126.857482 51.282684 
z
" clip-path="url(#p8d4a5a1cb2)" style="fill: #adc9fd; stroke: #adc9fd"/>
    <path d="M 128.666345 184.646118 
C 129.9038 184.646118 131.090739 184.154472 131.965751 183.279459 
C 132.840764 182.404446 133.33241 181.217508 133.33241 179.980053 
C 133.33241 178.742598 132.840764 177.555659 131.965751 176.680646 
C 131.090739 175.805634 129.9038 175.313988 128.666345 175.313988 
C 127.42889 175.313988 126.241952 175.805634 125.366939 176.680646 
C 124.491926 177.555659 124.00028 178.742598 124.00028 179.980053 
C 124.00028 181.217508 124.491926 182.404446 125.366939 183.279459 
C 126.241952 184.154472 127.42889 184.646118 128.666345 184.646118 
z
" clip-path="url(#p8d4a5a1cb2)" style="fill: #afcafc; stroke: #afcafc"/>
    <path d="M 86.460871 105.94833 
C 88.158719 105.94833 89.787257 105.273768 90.987817 104.073207 
C 92.188377 102.872647 92.862939 101.24411 92.862939 99.546262 
C 92.862939 97.848413 92.188377 96.219876 90.987817 95.019316 
C 89.787257 93.818756 88.158719 93.144193 86.460871 93.144193 
C 84.763023 93.144193 83.134485 93.818756 81.933925 95.019316 
C 80.733365 96.219876 80.058803 97.848413 80.058803 99.546262 
C 80.058803 101.24411 80.733365 102.872647 81.933925 104.073207 
C 83.134485 105.273768 84.763023 105.94833 86.460871 105.94833 
z
" clip-path="url(#p8d4a5a1cb2)" style="fill: #7ea1fa; stroke: #7ea1fa"/>
    <path d="M 180.673302 58.607964 
C 181.039276 58.607964 181.39031 58.462561 181.649093 58.203778 
C 181.907876 57.944995 182.05328 57.59396 182.05328 57.227986 
C 182.05328 56.862012 181.907876 56.510977 181.649093 56.252194 
C 181.39031 55.993411 181.039276 55.848008 180.673302 55.848008 
C 180.307327 55.848008 179.956293 55.993411 179.69751 56.252194 
C 179.438727 56.510977 179.293324 56.862012 179.293324 57.227986 
C 179.293324 57.59396 179.438727 57.944995 179.69751 58.203778 
C 179.956293 58.462561 180.307327 58.607964 180.673302 58.607964 
z
" clip-path="url(#p8d4a5a1cb2)" style="fill: #e2dad5; stroke: #e2dad5"/>
    <path d="M 168.399088 122.807251 
C 168.908083 122.807251 169.396299 122.605025 169.756213 122.245111 
C 170.116127 121.885198 170.318352 121.396981 170.318352 120.887986 
C 170.318352 120.378992 170.116127 119.890775 169.756213 119.530861 
C 169.396299 119.170948 168.908083 118.968722 168.399088 118.968722 
C 167.890093 118.968722 167.401877 119.170948 167.041963 119.530861 
C 166.682049 119.890775 166.479823 120.378992 166.479823 120.887986 
C 166.479823 121.396981 166.682049 121.885198 167.041963 122.245111 
C 167.401877 122.605025 167.890093 122.807251 168.399088 122.807251 
z
" clip-path="url(#p8d4a5a1cb2)" style="fill: #d7dce3; stroke: #d7dce3"/>
    <path d="M 172.88963 61.634809 
C 173.229176 61.634809 173.55486 61.499906 173.794956 61.259811 
C 174.035051 61.019716 174.169954 60.694031 174.169954 60.354486 
C 174.169954 60.01494 174.035051 59.689256 173.794956 59.44916 
C 173.55486 59.209065 173.229176 59.074162 172.88963 59.074162 
C 172.550085 59.074162 172.2244 59.209065 171.984305 59.44916 
C 171.74421 59.689256 171.609307 60.01494 171.609307 60.354486 
C 171.609307 60.694031 171.74421 61.019716 171.984305 61.259811 
C 172.2244 61.499906 172.550085 61.634809 172.88963 61.634809 
z
" clip-path="url(#p8d4a5a1cb2)" style="fill: #dbdcde; stroke: #dbdcde"/>
    <path d="M 231.019655 22.06609 
C 232.341017 22.06609 233.608437 21.541107 234.542782 20.606763 
C 235.477126 19.672419 236.002108 18.404998 236.002108 17.083636 
C 236.002108 15.762274 235.477126 14.494854 234.542782 13.56051 
C 233.608437 12.626166 232.341017 12.101183 231.019655 12.101183 
C 229.698293 12.101183 228.430873 12.626166 227.496529 13.56051 
C 226.562185 14.494854 226.037202 15.762274 226.037202 17.083636 
C 226.037202 18.404998 226.562185 19.672419 227.496529 20.606763 
C 228.430873 21.541107 229.698293 22.06609 231.019655 22.06609 
z
" clip-path="url(#p8d4a5a1cb2)" style="fill: #f7b194; stroke: #f7b194"/>
    <path d="M 246.02404 167.067999 
C 247.516163 167.067999 248.947373 166.475173 250.002463 165.420083 
C 251.057552 164.364993 251.650379 162.933783 251.650379 161.441661 
C 251.650379 159.949539 251.057552 158.518329 250.002463 157.463239 
C 248.947373 156.408149 247.516163 155.815323 246.02404 155.815323 
C 244.531918 155.815323 243.100708 156.408149 242.045618 157.463239 
C 240.990529 158.518329 240.397702 159.949539 240.397702 161.441661 
C 240.397702 162.933783 240.990529 164.364993 242.045618 165.420083 
C 243.100708 166.475173 244.531918 167.067999 246.02404 167.067999 
z
" clip-path="url(#p8d4a5a1cb2)" style="fill: #f59f80; stroke: #f59f80"/>
    <path d="M 167.153402 129.677003 
C 167.700176 129.677003 168.224629 129.459767 168.611257 129.07314 
C 168.997885 128.686512 169.21512 128.162059 169.21512 127.615285 
C 169.21512 127.068511 168.997885 126.544057 168.611257 126.15743 
C 168.224629 125.770802 167.700176 125.553566 167.153402 125.553566 
C 166.606628 125.553566 166.082174 125.770802 165.695547 126.15743 
C 165.308919 126.544057 165.091683 127.068511 165.091683 127.615285 
C 165.091683 128.162059 165.308919 128.686512 165.695547 129.07314 
C 166.082174 129.459767 166.606628 129.677003 167.153402 129.677003 
z
" clip-path="url(#p8d4a5a1cb2)" style="fill: #d6dce4; stroke: #d6dce4"/>
    <path d="M 180.596671 104.919156 
C 180.959278 104.919156 181.307082 104.775091 181.563484 104.51869 
C 181.819885 104.262288 181.96395 103.914484 181.96395 103.551877 
C 181.96395 103.18927 181.819885 102.841466 181.563484 102.585065 
C 181.307082 102.328663 180.959278 102.184598 180.596671 102.184598 
C 180.234065 102.184598 179.886261 102.328663 179.629859 102.585065 
C 179.373457 102.841466 179.229392 103.18927 179.229392 103.551877 
C 179.229392 103.914484 179.373457 104.262288 179.629859 104.51869 
C 179.886261 104.775091 180.234065 104.919156 180.596671 104.919156 
z
" clip-path="url(#p8d4a5a1cb2)" style="fill: #e2dad5; stroke: #e2dad5"/>
    <path d="M 112.653292 24.451466 
C 114.082985 24.451466 115.454315 23.883443 116.46526 22.872497 
C 117.476206 21.861551 118.044229 20.490222 118.044229 19.060529 
C 118.044229 17.630835 117.476206 16.259506 116.46526 15.24856 
C 115.454315 14.237614 114.082985 13.669591 112.653292 13.669591 
C 111.223598 13.669591 109.852269 14.237614 108.841323 15.24856 
C 107.830377 16.259506 107.262354 17.630835 107.262354 19.060529 
C 107.262354 20.490222 107.830377 21.861551 108.841323 22.872497 
C 109.852269 23.883443 111.223598 24.451466 112.653292 24.451466 
z
" clip-path="url(#p8d4a5a1cb2)" style="fill: #9dbdff; stroke: #9dbdff"/>
    <path d="M 116.043086 220.002218 
C 117.434303 220.002218 118.768726 219.449481 119.752465 218.465743 
C 120.736203 217.482004 121.28894 216.14758 121.28894 214.756364 
C 121.28894 213.365147 120.736203 212.030724 119.752465 211.046985 
C 118.768726 210.063246 117.434303 209.51051 116.043086 209.51051 
C 114.651869 209.51051 113.317446 210.063246 112.333707 211.046985 
C 111.349968 212.030724 110.797232 213.365147 110.797232 214.756364 
C 110.797232 216.14758 111.349968 217.482004 112.333707 218.465743 
C 113.317446 219.449481 114.651869 220.002218 116.043086 220.002218 
z
" clip-path="url(#p8d4a5a1cb2)" style="fill: #a1c0ff; stroke: #a1c0ff"/>
    <path d="M 154.980088 66.207022 
C 155.809994 66.207022 156.606021 65.877297 157.192853 65.290465 
C 157.779685 64.703632 158.109411 63.907605 158.109411 63.077699 
C 158.109411 62.247793 157.779685 61.451766 157.192853 60.864934 
C 156.606021 60.278101 155.809994 59.948376 154.980088 59.948376 
C 154.150181 59.948376 153.354154 60.278101 152.767322 60.864934 
C 152.18049 61.451766 151.850765 62.247793 151.850765 63.077699 
C 151.850765 63.907605 152.18049 64.703632 152.767322 65.290465 
C 153.354154 65.877297 154.150181 66.207022 154.980088 66.207022 
z
" clip-path="url(#p8d4a5a1cb2)" style="fill: #cbd8ee; stroke: #cbd8ee"/>
    <path d="M 283.598758 122.18156 
C 285.450662 122.18156 287.226967 121.445791 288.536461 120.136297 
C 289.845955 118.826803 290.581724 117.050499 290.581724 115.198594 
C 290.581724 113.34669 289.845955 111.570386 288.536461 110.260892 
C 287.226967 108.951398 285.450662 108.215628 283.598758 108.215628 
C 281.746854 108.215628 279.970549 108.951398 278.661055 110.260892 
C 277.351561 111.570386 276.615792 113.34669 276.615792 115.198594 
C 276.615792 117.050499 277.351561 118.826803 278.661055 120.136297 
C 279.970549 121.445791 281.746854 122.18156 283.598758 122.18156 
z
" clip-path="url(#p8d4a5a1cb2)" style="fill: #e26952; stroke: #e26952"/>
    <path d="M 176.976488 84.736647 
C 177.101258 84.736647 177.220934 84.687076 177.309159 84.59885 
C 177.397385 84.510625 177.446956 84.390948 177.446956 84.266179 
C 177.446956 84.141409 177.397385 84.021733 177.309159 83.933507 
C 177.220934 83.845282 177.101258 83.79571 176.976488 83.79571 
C 176.851718 83.79571 176.732042 83.845282 176.643817 83.933507 
C 176.555591 84.021733 176.50602 84.141409 176.50602 84.266179 
C 176.50602 84.390948 176.555591 84.510625 176.643817 84.59885 
C 176.732042 84.687076 176.851718 84.736647 176.976488 84.736647 
z
" clip-path="url(#p8d4a5a1cb2)" style="fill: #dedcdb; stroke: #dedcdb"/>
    <path d="M 104.410429 103.390962 
C 105.929625 103.390962 107.386802 102.78738 108.461036 101.713146 
C 109.535269 100.638913 110.138852 99.181735 110.138852 97.66254 
C 110.138852 96.143344 109.535269 94.686167 108.461036 93.611933 
C 107.386802 92.5377 105.929625 91.934117 104.410429 91.934117 
C 102.891234 91.934117 101.434056 92.5377 100.359823 93.611933 
C 99.285589 94.686167 98.682007 96.143344 98.682007 97.66254 
C 98.682007 99.181735 99.285589 100.638913 100.359823 101.713146 
C 101.434056 102.78738 102.891234 103.390962 104.410429 103.390962 
z
" clip-path="url(#p8d4a5a1cb2)" style="fill: #93b5fe; stroke: #93b5fe"/>
    <path d="M 195.244207 138.349282 
C 196.019119 138.349282 196.762397 138.041406 197.310343 137.49346 
C 197.858289 136.945514 198.166165 136.202236 198.166165 135.427324 
C 198.166165 134.652412 197.858289 133.909134 197.310343 133.361188 
C 196.762397 132.813242 196.019119 132.505366 195.244207 132.505366 
C 194.469295 132.505366 193.726017 132.813242 193.178071 133.361188 
C 192.630125 133.909134 192.322249 134.652412 192.322249 135.427324 
C 192.322249 136.202236 192.630125 136.945514 193.178071 137.49346 
C 193.726017 138.041406 194.469295 138.349282 195.244207 138.349282 
z
" clip-path="url(#p8d4a5a1cb2)" style="fill: #edd2c3; stroke: #edd2c3"/>
    <path d="M 208.574447 187.348686 
C 209.588013 187.348686 210.560202 186.945992 211.276901 186.229293 
C 211.9936 185.512594 212.396294 184.540405 212.396294 183.526839 
C 212.396294 182.513273 211.9936 181.541084 211.276901 180.824385 
C 210.560202 180.107686 209.588013 179.704992 208.574447 179.704992 
C 207.560881 179.704992 206.588692 180.107686 205.871993 180.824385 
C 205.155294 181.541084 204.7526 182.513273 204.7526 183.526839 
C 204.7526 184.540405 205.155294 185.512594 205.871993 186.229293 
C 206.588692 186.945992 207.560881 187.348686 208.574447 187.348686 
z
" clip-path="url(#p8d4a5a1cb2)" style="fill: #f3c8b2; stroke: #f3c8b2"/>
    <path d="M 215.006168 111.112443 
C 216.116689 111.112443 217.181874 110.671229 217.967131 109.885973 
C 218.752387 109.100716 219.193602 108.03553 219.193602 106.92501 
C 219.193602 105.81449 218.752387 104.749304 217.967131 103.964048 
C 217.181874 103.178791 216.116689 102.737577 215.006168 102.737577 
C 213.895648 102.737577 212.830462 103.178791 212.045206 103.964048 
C 211.259949 104.749304 210.818735 105.81449 210.818735 106.92501 
C 210.818735 108.03553 211.259949 109.100716 212.045206 109.885973 
C 212.830462 110.671229 213.895648 111.112443 215.006168 111.112443 
z
" clip-path="url(#p8d4a5a1cb2)" style="fill: #f5c2aa; stroke: #f5c2aa"/>
    <path d="M 278.105551 120.977066 
C 279.909342 120.977066 281.639497 120.260412 282.914969 118.98494 
C 284.190441 117.709468 284.907095 115.979313 284.907095 114.175522 
C 284.907095 112.371732 284.190441 110.641577 282.914969 109.366105 
C 281.639497 108.090632 279.909342 107.373978 278.105551 107.373978 
C 276.301761 107.373978 274.571606 108.090632 273.296134 109.366105 
C 272.020661 110.641577 271.304007 112.371732 271.304007 114.175522 
C 271.304007 115.979313 272.020661 117.709468 273.296134 118.98494 
C 274.571606 120.260412 276.301761 120.977066 278.105551 120.977066 
z
" clip-path="url(#p8d4a5a1cb2)" style="fill: #e57058; stroke: #e57058"/>
    <path d="M 232.912111 104.533134 
C 234.256207 104.533134 235.545433 103.999119 236.495852 103.0487 
C 237.446271 102.098281 237.980286 100.809055 237.980286 99.464959 
C 237.980286 98.120864 237.446271 96.831638 236.495852 95.881219 
C 235.545433 94.930799 234.256207 94.396785 232.912111 94.396785 
C 231.568016 94.396785 230.27879 94.930799 229.328371 95.881219 
C 228.377952 96.831638 227.843937 98.120864 227.843937 99.464959 
C 227.843937 100.809055 228.377952 102.098281 229.328371 103.0487 
C 230.27879 103.999119 231.568016 104.533134 232.912111 104.533134 
z
" clip-path="url(#p8d4a5a1cb2)" style="fill: #f7af91; stroke: #f7af91"/>
   </g>
   <g id="text_1">
    <!-- this plot *will* show up in the textbook. -->
    <g transform="translate(7.2 115.92)scale(0.2 -0.2)">
     <defs>
      <path id="DejaVuSans-74" d="M 1172 4494 
L 1172 3500 
L 2356 3500 
L 2356 3053 
L 1172 3053 
L 1172 1153 
Q 1172 725 1289 603 
Q 1406 481 1766 481 
L 2356 481 
L 2356 0 
L 1766 0 
Q 1100 0 847 248 
Q 594 497 594 1153 
L 594 3053 
L 172 3053 
L 172 3500 
L 594 3500 
L 594 4494 
L 1172 4494 
z
" transform="scale(0.015625)"/>
      <path id="DejaVuSans-68" d="M 3513 2113 
L 3513 0 
L 2938 0 
L 2938 2094 
Q 2938 2591 2744 2837 
Q 2550 3084 2163 3084 
Q 1697 3084 1428 2787 
Q 1159 2491 1159 1978 
L 1159 0 
L 581 0 
L 581 4863 
L 1159 4863 
L 1159 2956 
Q 1366 3272 1645 3428 
Q 1925 3584 2291 3584 
Q 2894 3584 3203 3211 
Q 3513 2838 3513 2113 
z
" transform="scale(0.015625)"/>
      <path id="DejaVuSans-69" d="M 603 3500 
L 1178 3500 
L 1178 0 
L 603 0 
L 603 3500 
z
M 603 4863 
L 1178 4863 
L 1178 4134 
L 603 4134 
L 603 4863 
z
" transform="scale(0.015625)"/>
      <path id="DejaVuSans-73" d="M 2834 3397 
L 2834 2853 
Q 2591 2978 2328 3040 
Q 2066 3103 1784 3103 
Q 1356 3103 1142 2972 
Q 928 2841 928 2578 
Q 928 2378 1081 2264 
Q 1234 2150 1697 2047 
L 1894 2003 
Q 2506 1872 2764 1633 
Q 3022 1394 3022 966 
Q 3022 478 2636 193 
Q 2250 -91 1575 -91 
Q 1294 -91 989 -36 
Q 684 19 347 128 
L 347 722 
Q 666 556 975 473 
Q 1284 391 1588 391 
Q 1994 391 2212 530 
Q 2431 669 2431 922 
Q 2431 1156 2273 1281 
Q 2116 1406 1581 1522 
L 1381 1569 
Q 847 1681 609 1914 
Q 372 2147 372 2553 
Q 372 3047 722 3315 
Q 1072 3584 1716 3584 
Q 2034 3584 2315 3537 
Q 2597 3491 2834 3397 
z
" transform="scale(0.015625)"/>
      <path id="DejaVuSans-20" transform="scale(0.015625)"/>
      <path id="DejaVuSans-70" d="M 1159 525 
L 1159 -1331 
L 581 -1331 
L 581 3500 
L 1159 3500 
L 1159 2969 
Q 1341 3281 1617 3432 
Q 1894 3584 2278 3584 
Q 2916 3584 3314 3078 
Q 3713 2572 3713 1747 
Q 3713 922 3314 415 
Q 2916 -91 2278 -91 
Q 1894 -91 1617 61 
Q 1341 213 1159 525 
z
M 3116 1747 
Q 3116 2381 2855 2742 
Q 2594 3103 2138 3103 
Q 1681 3103 1420 2742 
Q 1159 2381 1159 1747 
Q 1159 1113 1420 752 
Q 1681 391 2138 391 
Q 2594 391 2855 752 
Q 3116 1113 3116 1747 
z
" transform="scale(0.015625)"/>
      <path id="DejaVuSans-6c" d="M 603 4863 
L 1178 4863 
L 1178 0 
L 603 0 
L 603 4863 
z
" transform="scale(0.015625)"/>
      <path id="DejaVuSans-6f" d="M 1959 3097 
Q 1497 3097 1228 2736 
Q 959 2375 959 1747 
Q 959 1119 1226 758 
Q 1494 397 1959 397 
Q 2419 397 2687 759 
Q 2956 1122 2956 1747 
Q 2956 2369 2687 2733 
Q 2419 3097 1959 3097 
z
M 1959 3584 
Q 2709 3584 3137 3096 
Q 3566 2609 3566 1747 
Q 3566 888 3137 398 
Q 2709 -91 1959 -91 
Q 1206 -91 779 398 
Q 353 888 353 1747 
Q 353 2609 779 3096 
Q 1206 3584 1959 3584 
z
" transform="scale(0.015625)"/>
      <path id="DejaVuSans-2a" d="M 3009 3897 
L 1888 3291 
L 3009 2681 
L 2828 2375 
L 1778 3009 
L 1778 1831 
L 1422 1831 
L 1422 3009 
L 372 2375 
L 191 2681 
L 1313 3291 
L 191 3897 
L 372 4206 
L 1422 3572 
L 1422 4750 
L 1778 4750 
L 1778 3572 
L 2828 4206 
L 3009 3897 
z
" transform="scale(0.015625)"/>
      <path id="DejaVuSans-77" d="M 269 3500 
L 844 3500 
L 1563 769 
L 2278 3500 
L 2956 3500 
L 3675 769 
L 4391 3500 
L 4966 3500 
L 4050 0 
L 3372 0 
L 2619 2869 
L 1863 0 
L 1184 0 
L 269 3500 
z
" transform="scale(0.015625)"/>
      <path id="DejaVuSans-75" d="M 544 1381 
L 544 3500 
L 1119 3500 
L 1119 1403 
Q 1119 906 1312 657 
Q 1506 409 1894 409 
Q 2359 409 2629 706 
Q 2900 1003 2900 1516 
L 2900 3500 
L 3475 3500 
L 3475 0 
L 2900 0 
L 2900 538 
Q 2691 219 2414 64 
Q 2138 -91 1772 -91 
Q 1169 -91 856 284 
Q 544 659 544 1381 
z
M 1991 3584 
L 1991 3584 
z
" transform="scale(0.015625)"/>
      <path id="DejaVuSans-6e" d="M 3513 2113 
L 3513 0 
L 2938 0 
L 2938 2094 
Q 2938 2591 2744 2837 
Q 2550 3084 2163 3084 
Q 1697 3084 1428 2787 
Q 1159 2491 1159 1978 
L 1159 0 
L 581 0 
L 581 3500 
L 1159 3500 
L 1159 2956 
Q 1366 3272 1645 3428 
Q 1925 3584 2291 3584 
Q 2894 3584 3203 3211 
Q 3513 2838 3513 2113 
z
" transform="scale(0.015625)"/>
      <path id="DejaVuSans-65" d="M 3597 1894 
L 3597 1613 
L 953 1613 
Q 991 1019 1311 708 
Q 1631 397 2203 397 
Q 2534 397 2845 478 
Q 3156 559 3463 722 
L 3463 178 
Q 3153 47 2828 -22 
Q 2503 -91 2169 -91 
Q 1331 -91 842 396 
Q 353 884 353 1716 
Q 353 2575 817 3079 
Q 1281 3584 2069 3584 
Q 2775 3584 3186 3129 
Q 3597 2675 3597 1894 
z
M 3022 2063 
Q 3016 2534 2758 2815 
Q 2500 3097 2075 3097 
Q 1594 3097 1305 2825 
Q 1016 2553 972 2059 
L 3022 2063 
z
" transform="scale(0.015625)"/>
      <path id="DejaVuSans-78" d="M 3513 3500 
L 2247 1797 
L 3578 0 
L 2900 0 
L 1881 1375 
L 863 0 
L 184 0 
L 1544 1831 
L 300 3500 
L 978 3500 
L 1906 2253 
L 2834 3500 
L 3513 3500 
z
" transform="scale(0.015625)"/>
      <path id="DejaVuSans-62" d="M 3116 1747 
Q 3116 2381 2855 2742 
Q 2594 3103 2138 3103 
Q 1681 3103 1420 2742 
Q 1159 2381 1159 1747 
Q 1159 1113 1420 752 
Q 1681 391 2138 391 
Q 2594 391 2855 752 
Q 3116 1113 3116 1747 
z
M 1159 2969 
Q 1341 3281 1617 3432 
Q 1894 3584 2278 3584 
Q 2916 3584 3314 3078 
Q 3713 2572 3713 1747 
Q 3713 922 3314 415 
Q 2916 -91 2278 -91 
Q 1894 -91 1617 61 
Q 1341 213 1159 525 
L 1159 0 
L 581 0 
L 581 4863 
L 1159 4863 
L 1159 2969 
z
" transform="scale(0.015625)"/>
      <path id="DejaVuSans-6b" d="M 581 4863 
L 1159 4863 
L 1159 1991 
L 2875 3500 
L 3609 3500 
L 1753 1863 
L 3688 0 
L 2938 0 
L 1159 1709 
L 1159 0 
L 581 0 
L 581 4863 
z
" transform="scale(0.015625)"/>
      <path id="DejaVuSans-2e" d="M 684 794 
L 1344 794 
L 1344 0 
L 684 0 
L 684 794 
z
" transform="scale(0.015625)"/>
     </defs>
     <use xlink:href="#DejaVuSans-74"/>
     <use xlink:href="#DejaVuSans-68" x="39.208984"/>
     <use xlink:href="#DejaVuSans-69" x="102.587891"/>
     <use xlink:href="#DejaVuSans-73" x="130.371094"/>
     <use xlink:href="#DejaVuSans-20" x="182.470703"/>
     <use xlink:href="#DejaVuSans-70" x="214.257812"/>
     <use xlink:href="#DejaVuSans-6c" x="277.734375"/>
     <use xlink:href="#DejaVuSans-6f" x="305.517578"/>
     <use xlink:href="#DejaVuSans-74" x="366.699219"/>
     <use xlink:href="#DejaVuSans-20" x="405.908203"/>
     <use xlink:href="#DejaVuSans-2a" x="437.695312"/>
     <use xlink:href="#DejaVuSans-77" x="487.695312"/>
     <use xlink:href="#DejaVuSans-69" x="569.482422"/>
     <use xlink:href="#DejaVuSans-6c" x="597.265625"/>
     <use xlink:href="#DejaVuSans-6c" x="625.048828"/>
     <use xlink:href="#DejaVuSans-2a" x="652.832031"/>
     <use xlink:href="#DejaVuSans-20" x="702.832031"/>
     <use xlink:href="#DejaVuSans-73" x="734.619141"/>
     <use xlink:href="#DejaVuSans-68" x="786.71875"/>
     <use xlink:href="#DejaVuSans-6f" x="850.097656"/>
     <use xlink:href="#DejaVuSans-77" x="911.279297"/>
     <use xlink:href="#DejaVuSans-20" x="993.066406"/>
     <use xlink:href="#DejaVuSans-75" x="1024.853516"/>
     <use xlink:href="#DejaVuSans-70" x="1088.232422"/>
     <use xlink:href="#DejaVuSans-20" x="1151.708984"/>
     <use xlink:href="#DejaVuSans-69" x="1183.496094"/>
     <use xlink:href="#DejaVuSans-6e" x="1211.279297"/>
     <use xlink:href="#DejaVuSans-20" x="1274.658203"/>
     <use xlink:href="#DejaVuSans-74" x="1306.445312"/>
     <use xlink:href="#DejaVuSans-68" x="1345.654297"/>
     <use xlink:href="#DejaVuSans-65" x="1409.033203"/>
     <use xlink:href="#DejaVuSans-20" x="1470.556641"/>
     <use xlink:href="#DejaVuSans-74" x="1502.34375"/>
     <use xlink:href="#DejaVuSans-65" x="1541.552734"/>
     <use xlink:href="#DejaVuSans-78" x="1601.326172"/>
     <use xlink:href="#DejaVuSans-74" x="1660.505859"/>
     <use xlink:href="#DejaVuSans-62" x="1699.714844"/>
     <use xlink:href="#DejaVuSans-6f" x="1763.191406"/>
     <use xlink:href="#DejaVuSans-6f" x="1824.373047"/>
     <use xlink:href="#DejaVuSans-6b" x="1885.554688"/>
     <use xlink:href="#DejaVuSans-2e" x="1943.464844"/>
    </g>
   </g>
  </g>
 </g>
 <defs>
  <clipPath id="p8d4a5a1cb2">
   <rect x="7.2" y="7.2" width="334.8" height="217.44"/>
  </clipPath>
 </defs>
</svg>
